<?xml version="1.0" encoding="utf-8"?><svg viewBox="0 0 48 48" xmlns="http://www.w3.org/2000/svg" xmlns:xlink="http://www.w3.org/1999/xlink"><style>:root>svg{display:none}:root>svg:target{display:block}</style><svg fill="none" viewBox="0 0 48 48" id="Logo" xmlns="http://www.w3.org/2000/svg"><g clip-path="url(#aclip0_304_127)"><path d="M38.186 15.724a.795.795 0 001.128 0l5.559-5.559a4.09 4.09 0 000-5.777 4.09 4.09 0 00-5.777 0l-.346.345-.345-.345a4.09 4.09 0 00-5.777 0 4.058 4.058 0 00-1.197 2.889c0 1.09.425 2.117 1.197 2.888l5.558 5.559zm-4.43-10.207a2.48 2.48 0 011.76-.728c.637 0 1.275.242 1.76.728l.91.91a.799.799 0 001.128 0l.91-.91a2.491 2.491 0 013.52 0c.97.97.97 2.55 0 3.52l-4.994 4.994-4.994-4.994a2.474 2.474 0 01-.73-1.76c.001-.665.26-1.29.73-1.76z" fill="#FF2625"/><path d="M46.233 46.28c-6.82.756-12.229-2.263-12.283-2.294a.795.795 0 00-.605-.077c-.086.023-8.664 2.323-15.574.79-4.307-.958-8.37-3.992-11.336-6.208-.399-.297-.776-.58-1.13-.838-.485-.354-1.255-.649-1.933-.909-.305-.116-.723-.276-.812-.332a.312.312 0 01-.12-.253V34.31c.038-1.463 6.173-23.98 7.125-26.845a.617.617 0 01.182-.132L21.89 1.787l3.926 5.11a.704.704 0 01-.043.88l-3.879 4.348c-.254.285-.681.316-.946.095l-1.569-1.446a.804.804 0 00-.69-.18.837.837 0 00-.579.441c-.131.258-1.319.575-2.53.584l-.395-.04a.798.798 0 00-.712 1.282c.337.435.6.785.748.986l.777 13.197c-.482 1.874-.922 2.406-1.032 2.513a.799.799 0 00.24 1.559c.905 0 1.674-1.19 2.291-3.51 6.346-4.749 11.885-.268 12.319.101 2.015 2.023 2.14 3.367 2.144 3.426a.798.798 0 001.596-.017c0-.184-.066-1.758-2.131-4.032 1.947-2.395 4.165-3.774 6.607-4.074 4.21-.519 7.75 2.313 7.785 2.341a.798.798 0 001.01-1.236c-.165-.134-4.083-3.286-8.974-2.69-2.859.346-5.425 1.892-7.638 4.598-1.795-1.22-6.943-3.984-12.7-.37l-.715-12.136a.793.793 0 00-.116-.37c.714-.085 1.564-.271 2.181-.677l1.028.947a2.287 2.287 0 003.191-.229l3.88-4.349a2.313 2.313 0 00.129-2.898L22.767.311a.798.798 0 00-.964-.239L9.094 5.877c-.133.059-.807.385-1.029 1.051C7.613 8.285.844 32.426.844 34.308v1.852c0 .594.267 1.144.732 1.508.232.182.58.32 1.225.567.528.202 1.25.477 1.561.706.351.256.724.535 1.118.83 3.082 2.301 7.303 5.453 11.946 6.485 6.608 1.469 14.365-.307 16.028-.726 1.11.574 5.184 2.47 10.517 2.47.787 0 1.602-.041 2.438-.134a.798.798 0 10-.176-1.586z" fill="#3A1212"/><path d="M42.325 36.612a.798.798 0 00-1.591.088c0 .533.393 2.337 5.454 3.18a.798.798 0 00.262-1.574c-3.539-.59-4.078-1.588-4.125-1.694zM27.006 40.707c-10.45 2.239-14.922-4.911-15.107-5.216a.798.798 0 00-1.367.822c.053.088 1.322 2.172 4.037 3.947 1.87 1.223 4.723 2.47 8.581 2.47a19.98 19.98 0 004.19-.462.798.798 0 00-.334-1.56z" fill="#FF2625"/></g><defs><clipPath id="aclip0_304_127"><path fill="#fff" d="M0 0h48v48H0z"/></clipPath></defs></svg><svg fill="none" viewBox="0 0 48 48" id="favicon" xmlns="http://www.w3.org/2000/svg"><g clip-path="url(#bclip0_304_127)"><path d="M38.186 15.724a.795.795 0 001.128 0l5.559-5.559a4.09 4.09 0 000-5.777 4.09 4.09 0 00-5.777 0l-.346.345-.345-.345a4.09 4.09 0 00-5.777 0 4.058 4.058 0 00-1.197 2.889c0 1.09.425 2.117 1.197 2.888l5.558 5.559zm-4.43-10.207a2.48 2.48 0 011.76-.728c.637 0 1.275.242 1.76.728l.91.91a.799.799 0 001.128 0l.91-.91a2.491 2.491 0 013.52 0c.97.97.97 2.55 0 3.52l-4.994 4.994-4.994-4.994a2.474 2.474 0 01-.73-1.76c.001-.665.26-1.29.73-1.76z" fill="#FF2625"/><path d="M46.233 46.28c-6.82.756-12.229-2.263-12.283-2.294a.795.795 0 00-.605-.077c-.086.023-8.664 2.323-15.574.79-4.307-.958-8.37-3.992-11.336-6.208-.399-.297-.776-.58-1.13-.838-.485-.354-1.255-.649-1.933-.909-.305-.116-.723-.276-.812-.332a.312.312 0 01-.12-.253V34.31c.038-1.463 6.173-23.98 7.125-26.845a.617.617 0 01.182-.132L21.89 1.787l3.926 5.11a.704.704 0 01-.043.88l-3.879 4.348c-.254.285-.681.316-.946.095l-1.569-1.446a.804.804 0 00-.69-.18.837.837 0 00-.579.441c-.131.258-1.319.575-2.53.584l-.395-.04a.798.798 0 00-.712 1.282c.337.435.6.785.748.986l.777 13.197c-.482 1.874-.922 2.406-1.032 2.513a.799.799 0 00.24 1.559c.905 0 1.674-1.19 2.291-3.51 6.346-4.749 11.885-.268 12.319.101 2.015 2.023 2.14 3.367 2.144 3.426a.798.798 0 001.596-.017c0-.184-.066-1.758-2.131-4.032 1.947-2.395 4.165-3.774 6.607-4.074 4.21-.519 7.75 2.313 7.785 2.341a.798.798 0 001.01-1.236c-.165-.134-4.083-3.286-8.974-2.69-2.859.346-5.425 1.892-7.638 4.598-1.795-1.22-6.943-3.984-12.7-.37l-.715-12.136a.793.793 0 00-.116-.37c.714-.085 1.564-.271 2.181-.677l1.028.947a2.287 2.287 0 003.191-.229l3.88-4.349a2.313 2.313 0 00.129-2.898L22.767.311a.798.798 0 00-.964-.239L9.094 5.877c-.133.059-.807.385-1.029 1.051C7.613 8.285.844 32.426.844 34.308v1.852c0 .594.267 1.144.732 1.508.232.182.58.32 1.225.567.528.202 1.25.477 1.561.706.351.256.724.535 1.118.83 3.082 2.301 7.303 5.453 11.946 6.485 6.608 1.469 14.365-.307 16.028-.726 1.11.574 5.184 2.47 10.517 2.47.787 0 1.602-.041 2.438-.134a.798.798 0 10-.176-1.586z" fill="#3A1212"/><path d="M42.325 36.612a.798.798 0 00-1.591.088c0 .533.393 2.337 5.454 3.18a.798.798 0 00.262-1.574c-3.539-.59-4.078-1.588-4.125-1.694zM27.006 40.707c-10.45 2.239-14.922-4.911-15.107-5.216a.798.798 0 00-1.367.822c.053.088 1.322 2.172 4.037 3.947 1.87 1.223 4.723 2.47 8.581 2.47a19.98 19.98 0 004.19-.462.798.798 0 00-.334-1.56z" fill="#FF2625"/></g><defs><clipPath id="bclip0_304_127"><path fill="#fff" d="M0 0h48v48H0z"/></clipPath></defs></svg><svg fill="none" viewBox="0 0 26 2" id="header-line" xmlns="http://www.w3.org/2000/svg"><path fill="#FF2625" d="M0 0h26v2H0z"/></svg><svg fill="none" viewBox="0 0 26 26" id="header-title" xmlns="http://www.w3.org/2000/svg"><path d="M.833 21.66l.407 1.218a.406.406 0 00.385.278h1.219a.406.406 0 00.385-.277l.314-.942h.633l.314.941a.406.406 0 00.385.278h1.219a.406.406 0 00.385-.277l.406-1.22a.405.405 0 00.021-.128v-1.625A.406.406 0 006.5 19.5H5.281v-1.219h1.625a.407.407 0 00.407-.406v-2.031a.406.406 0 00-.407-.406H5.688v-.407a.406.406 0 00-.12-.287l-.676-.676.35-3.505h1.413l2.325 4.65c.301.605.785 1.1 1.382 1.416l12.197 6.48a.406.406 0 00.546-.162l2.031-3.656a.405.405 0 00-.173-.56l-.813-.407a.407.407 0 00-.39.015l-1.794 1.076-8.623-6.664-1.857-5.198c.194-.317.296-.681.295-1.053V4.469a1.625 1.625 0 00-2.6-1.3l-1.3.975a.406.406 0 00-.162.325V6.5c0 .28.058.556.17.813H5.28a3.254 3.254 0 00-3.25 3.25v4.468c0 .108.043.211.12.287l.118.12H1.22a.406.406 0 00-.407.406v2.031a.406.406 0 00.407.406h1.625V19.5H1.219a.406.406 0 00-.407.406v1.625c0 .044.008.087.022.129zm1.718.684h-.633l-.136-.407h.904l-.135.407zm2.617 0l-.136-.407h.904l-.135.407h-.633zM6.5 9.75V8.125h2.031v-.001a2.026 2.026 0 002.324.079l1.33 3.722-3.224 1.432-1.397-2.794h1.78V9.75H6.5zm4.469-3.25a1.22 1.22 0 01-2.438 0v-.406h.406a.406.406 0 00.288-.12l.693-.693h1.05V6.5zM21.26 21.499l-7.237-3.845 1.412-2.259 6.062 4.684-.237 1.42zm2.726-2.348l.234.116-1.631 2.937-.572-.303.29-1.743 1.68-1.007zm-9.197-4.255l-1.485 2.376-2.56-1.36a2.425 2.425 0 01-1.037-1.063l-.382-.764 3.134-1.393.158.445a.406.406 0 00.135.184l2.037 1.575zM9.67 3.819a.813.813 0 011.3.65H9.75a.406.406 0 00-.287.119l-.694.693h-.238v-.61L9.67 3.82zM2.844 14.863v-4.3A2.44 2.44 0 015.28 8.124h.407V9.75h-.813a.406.406 0 00-.404.366l-.406 4.062a.406.406 0 00.116.328l.694.694v.238H3.418l-.574-.575zM1.625 16.25H6.5v1.219H1.625V16.25zm2.031 2.031h.813V19.5h-.813v-1.219zm-2.031 2.032h4.469v.812H1.625v-.813z" fill="#FF2625" fill-opacity=".5"/></svg></svg>